Normalized EMG Linear Envelopes
nRows=32
nColumns=17

endheader
time	        VM	        VL	        RF	       GRA	        TA	   ADDLONG	   SEMIMEM	      BFLH	        GM	        GL	       TFL	   GLUTMAX	   GLUTMED	      PIRI	    OBTINT	        QF	
3.6925	  0.561491	  0.670601	  0.069199	  0.425184	  0.333652	  0.220544	  0.513147	  0.617738	  0.214375	  0.201505	  0.037004	  0.267739	  0.197756	  0.000000	  0.000000	  0.000000	
3.693	  0.565287	  0.675592	  0.069950	  0.422385	  0.334607	  0.220647	  0.510783	  0.613665	  0.211761	  0.201788	  0.037070	  0.269234	  0.198896	  0.000000	  0.000000	  0.000000	
3.6935	  0.569015	  0.680541	  0.070703	  0.419618	  0.335582	  0.220740	  0.508435	  0.609622	  0.209197	  0.202098	  0.037143	  0.270771	  0.200074	  0.000000	  0.000000	  0.000000	
3.694	  0.572673	  0.685446	  0.071456	  0.416881	  0.336575	  0.220823	  0.506100	  0.605610	  0.206684	  0.202436	  0.037222	  0.272349	  0.201291	  0.000000	  0.000000	  0.000000	
3.6945	  0.576257	  0.690304	  0.072210	  0.414174	  0.337585	  0.220895	  0.503778	  0.601630	  0.204223	  0.202801	  0.037309	  0.273968	  0.202545	  0.000000	  0.000000	  0.000000	
3.695	  0.579764	  0.695114	  0.072964	  0.411497	  0.338610	  0.220957	  0.501466	  0.597682	  0.201815	  0.203194	  0.037403	  0.275628	  0.203836	  0.000000	  0.000000	  0.000000	
3.6955	  0.583193	  0.699871	  0.073719	  0.408849	  0.339650	  0.221009	  0.499162	  0.593766	  0.199461	  0.203616	  0.037504	  0.277331	  0.205164	  0.000000	  0.000000	  0.000000	
3.696	  0.586538	  0.704574	  0.074474	  0.406229	  0.340704	  0.221049	  0.496867	  0.589884	  0.197161	  0.204066	  0.037612	  0.279075	  0.206528	  0.000000	  0.000000	  0.000000	
3.6965	  0.589799	  0.709219	  0.075228	  0.403638	  0.341769	  0.221079	  0.494579	  0.586036	  0.194916	  0.204546	  0.037727	  0.280861	  0.207927	  0.000000	  0.000000	  0.000000	
3.697	  0.592972	  0.713804	  0.075983	  0.401075	  0.342846	  0.221099	  0.492296	  0.582221	  0.192727	  0.205055	  0.037850	  0.282690	  0.209361	  0.000000	  0.000000	  0.000000	
3.6975	  0.596054	  0.718327	  0.076736	  0.398540	  0.343931	  0.221107	  0.490021	  0.578440	  0.190593	  0.205593	  0.037981	  0.284560	  0.210829	  0.000000	  0.000000	  0.000000	
3.698	  0.599045	  0.722784	  0.077488	  0.396031	  0.345025	  0.221104	  0.487752	  0.574694	  0.188516	  0.206161	  0.038119	  0.286472	  0.212329	  0.000000	  0.000000	  0.000000	
3.6985	  0.601941	  0.727174	  0.078239	  0.393549	  0.346125	  0.221089	  0.485490	  0.570982	  0.186497	  0.206760	  0.038265	  0.288426	  0.213862	  0.000000	  0.000000	  0.000000	
3.699	  0.604741	  0.731495	  0.078989	  0.391093	  0.347229	  0.221063	  0.483235	  0.567305	  0.184535	  0.207388	  0.038419	  0.290422	  0.215425	  0.000000	  0.000000	  0.000000	
3.6995	  0.607442	  0.735745	  0.079736	  0.388662	  0.348336	  0.221026	  0.480988	  0.563663	  0.182631	  0.208047	  0.038580	  0.292460	  0.217020	  0.000000	  0.000000	  0.000000	
3.7	  0.610044	  0.739923	  0.080481	  0.386256	  0.349443	  0.220976	  0.478750	  0.560055	  0.180785	  0.208736	  0.038750	  0.294540	  0.218644	  0.000000	  0.000000	  0.000000	
3.7005	  0.612543	  0.744025	  0.081224	  0.383875	  0.350550	  0.220914	  0.476520	  0.556481	  0.178997	  0.209455	  0.038927	  0.296662	  0.220296	  0.000000	  0.000000	  0.000000	
3.701	  0.614938	  0.748052	  0.081963	  0.381517	  0.351654	  0.220840	  0.474299	  0.552943	  0.177268	  0.210204	  0.039113	  0.298826	  0.221977	  0.000000	  0.000000	  0.000000	
3.7015	  0.617228	  0.752003	  0.082699	  0.379183	  0.352752	  0.220754	  0.472089	  0.549439	  0.175599	  0.210983	  0.039306	  0.301033	  0.223684	  0.000000	  0.000000	  0.000000	
3.702	  0.619414	  0.755876	  0.083432	  0.376872	  0.353843	  0.220655	  0.469890	  0.545971	  0.173988	  0.211792	  0.039508	  0.303283	  0.225417	  0.000000	  0.000000	  0.000000	
3.7025	  0.621495	  0.759671	  0.084160	  0.374584	  0.354924	  0.220543	  0.467704	  0.542538	  0.172437	  0.212631	  0.039718	  0.305576	  0.227176	  0.000000	  0.000000	  0.000000	
3.703	  0.623473	  0.763390	  0.084884	  0.372318	  0.355992	  0.220419	  0.465531	  0.539142	  0.170945	  0.213499	  0.039936	  0.307912	  0.228959	  0.000000	  0.000000	  0.000000	
3.7035	  0.625349	  0.767033	  0.085604	  0.370076	  0.357047	  0.220281	  0.463373	  0.535782	  0.169513	  0.214397	  0.040162	  0.310292	  0.230766	  0.000000	  0.000000	  0.000000	
3.704	  0.627123	  0.770599	  0.086319	  0.367856	  0.358085	  0.220129	  0.461232	  0.532461	  0.168140	  0.215323	  0.040397	  0.312716	  0.232595	  0.000000	  0.000000	  0.000000	
3.7045	  0.628797	  0.774090	  0.087028	  0.365659	  0.359104	  0.219964	  0.459109	  0.529177	  0.166828	  0.216277	  0.040640	  0.315185	  0.234446	  0.000000	  0.000000	  0.000000	
3.705	  0.630372	  0.777507	  0.087732	  0.363486	  0.360102	  0.219784	  0.457006	  0.525932	  0.165575	  0.217260	  0.040890	  0.317697	  0.236316	  0.000000	  0.000000	  0.000000	
3.7055	  0.631850	  0.780849	  0.088430	  0.361336	  0.361076	  0.219590	  0.454925	  0.522726	  0.164383	  0.218270	  0.041149	  0.320254	  0.238207	  0.000000	  0.000000	  0.000000	
3.706	  0.633232	  0.784117	  0.089122	  0.359210	  0.362026	  0.219382	  0.452869	  0.519561	  0.163252	  0.219308	  0.041416	  0.322855	  0.240115	  0.000000	  0.000000	  0.000000	
3.7065	  0.634519	  0.787312	  0.089807	  0.357110	  0.362948	  0.219158	  0.450840	  0.516439	  0.162181	  0.220374	  0.041692	  0.325500	  0.242039	  0.000000	  0.000000	  0.000000	
3.707	  0.635715	  0.790435	  0.090486	  0.355035	  0.363841	  0.218919	  0.448840	  0.513360	  0.161172	  0.221466	  0.041975	  0.328189	  0.243980	  0.000000	  0.000000	  0.000000	
3.7075	  0.636822	  0.793487	  0.091157	  0.352987	  0.364702	  0.218665	  0.446872	  0.510326	  0.160224	  0.222584	  0.042266	  0.330921	  0.245934	  0.000000	  0.000000	  0.000000	
3.708	  0.637841	  0.796470	  0.091822	  0.350966	  0.365530	  0.218395	  0.444937	  0.507339	  0.159338	  0.223728	  0.042565	  0.333697	  0.247902	  0.000000	  0.000000	  0.000000	
